<svg data-v-423bf9ae="" xmlns="http://www.w3.org/2000/svg" viewBox="0 0 83.0357185812022 60" class="font"><!----><!----><!----><g data-v-423bf9ae="" id="03d8ade3-7c7a-4f1e-b40f-c00c880ffb33" fill="black" transform="matrix(4.464285853667328,0,0,4.464285853667328,1.6071418282024084,-26.56250045466281)"><path d="M7.24 15.09L7.24 15.09L7.24 15.09Q7.01 15.02 6.81 14.99L6.81 14.99L6.81 14.99Q6.61 14.95 6.41 14.95L6.41 14.95L6.41 14.95Q5.50 14.95 4.80 15.68L4.80 15.68L4.80 15.68Q3.84 16.73 3.40 16.73L3.40 16.73L3.35 16.73L3.35 16.73Q3.18 16.66 3.11 16.39L3.11 16.39L3.11 16.39Q3.04 16.11 3.04 15.71L3.04 15.71L3.04 15.71Q3.04 15.09 3.19 14.28L3.19 14.28L3.19 14.28Q3.35 13.47 3.63 12.67L3.63 12.67L3.63 12.67Q3.85 12.05 4.19 11.36L4.19 11.36L4.19 11.36Q4.52 10.67 4.88 10.08L4.88 10.08L4.88 10.08Q5.24 9.49 5.57 9.09L5.57 9.09L5.57 9.09Q5.91 8.69 6.12 8.68L6.12 8.68L6.12 8.68Q6.19 8.74 6.22 8.87L6.22 8.87L6.22 8.87Q6.24 9.00 6.24 9.16L6.24 9.16L6.24 9.16Q6.24 9.37 6.22 9.64L6.22 9.64L6.22 9.64Q6.20 9.91 6.20 10.18L6.20 10.18L6.20 10.18Q6.24 10.57 6.36 10.88L6.36 10.88L6.36 10.88Q6.47 11.19 6.68 11.42L6.68 11.42L6.68 11.42Q6.89 11.65 7.21 11.81L7.21 11.81L7.21 11.81Q7.53 11.97 8.01 12.07L8.01 12.07L8.01 12.07Q8.11 12.10 8.19 12.10L8.19 12.10L8.19 12.10Q8.27 12.10 8.34 12.10L8.34 12.10L8.34 12.10Q8.71 12.10 8.83 11.96L8.83 11.96L8.83 11.96Q8.95 11.83 9.03 11.59L9.03 11.59L9.03 11.59Q9.04 11.56 9.07 11.54L9.07 11.54L9.07 11.54Q9.17 11.28 9.25 10.96L9.25 10.96L9.25 10.96Q9.32 10.63 9.38 10.28L9.38 10.28L9.38 10.28Q9.44 9.93 9.46 9.57L9.46 9.57L9.46 9.57Q9.49 9.21 9.49 8.90L9.49 8.90L9.49 8.90Q9.49 8.33 9.32 7.85L9.32 7.85L9.32 7.85Q9.16 7.38 8.58 6.93L8.58 6.93L8.58 6.93Q8.36 6.75 8.04 6.59L8.04 6.59L8.04 6.59Q7.73 6.43 7.38 6.30L7.38 6.30L7.38 6.30Q7.03 6.17 6.65 6.09L6.65 6.09L6.65 6.09Q6.27 6.01 5.92 5.96L5.92 5.96L5.94 5.96L5.94 5.96Q5.87 5.95 5.78 5.95L5.78 5.95L5.78 5.95Q5.71 5.95 5.64 5.95L5.64 5.95L5.64 5.95Q4.80 5.95 4.03 6.41L4.03 6.41L4.03 6.41Q3.26 6.87 2.60 7.64L2.60 7.64L2.60 7.64Q1.93 8.40 1.39 9.38L1.39 9.38L1.39 9.38Q0.84 10.36 0.45 11.41L0.45 11.41L0.45 11.41Q0.06 12.46-0.15 13.49L-0.15 13.49L-0.15 13.49Q-0.36 14.52-0.36 15.37L-0.36 15.37L-0.36 15.37Q-0.36 15.92-0.29 16.41L-0.29 16.41L-0.29 16.41Q-0.21 16.91-0.04 17.32L-0.04 17.32L-0.04 17.29L-0.04 17.29Q0.04 17.54 0.20 17.79L0.20 17.79L0.20 17.79Q0.36 18.05 0.57 18.26L0.57 18.26L0.57 18.26Q0.77 18.47 0.99 18.61L0.99 18.61L0.99 18.61Q1.22 18.76 1.43 18.82L1.43 18.82L1.41 18.82L1.41 18.82Q1.82 18.97 2.32 19.14L2.32 19.14L2.32 19.14Q2.83 19.31 3.46 19.38L3.46 19.38L3.44 19.38L3.44 19.38Q3.51 19.39 3.60 19.39L3.60 19.39L3.60 19.39Q3.68 19.39 3.79 19.39L3.79 19.39L3.79 19.39Q5.14 19.39 6.10 18.66L6.10 18.66L6.10 18.66Q7.07 17.93 7.64 16.76L7.64 16.76L7.64 16.76Q7.76 16.52 7.84 16.30L7.84 16.30L7.84 16.30Q7.92 16.09 7.92 15.89L7.92 15.89L7.92 15.89Q7.92 15.61 7.76 15.41L7.76 15.41L7.76 15.41Q7.60 15.20 7.24 15.09ZM17.49 8.86L17.49 8.86L17.49 8.86Q17.92 8.81 18.08 8.67L18.08 8.67L18.08 8.67Q18.24 8.53 18.24 8.15L18.24 8.15L18.24 8.15Q18.24 7.84 18.14 7.48L18.14 7.48L18.14 7.48Q18.05 7.11 17.86 6.80L17.86 6.80L17.86 6.80Q17.67 6.48 17.40 6.27L17.40 6.27L17.40 6.27Q17.12 6.06 16.76 6.06L16.76 6.06L16.66 6.06L16.66 6.06Q15.93 6.09 15.16 6.16L15.16 6.16L15.16 6.16Q14.38 6.23 13.62 6.33L13.62 6.33L13.62 6.33Q12.85 6.43 12.13 6.56L12.13 6.56L12.13 6.56Q11.41 6.69 10.81 6.86L10.81 6.86L10.81 6.86Q10.77 7.55 10.59 8.48L10.59 8.48L10.59 8.48Q10.42 9.41 10.18 10.43L10.18 10.43L10.18 10.43Q9.94 11.45 9.67 12.51L9.67 12.51L9.67 12.51Q9.39 13.57 9.14 14.49L9.14 14.49L9.14 14.49Q8.89 15.41 8.70 16.15L8.70 16.15L8.70 16.15Q8.51 16.88 8.46 17.28L8.46 17.28L8.46 17.28Q8.41 17.53 8.41 17.74L8.41 17.74L8.41 17.74Q8.41 18.03 8.53 18.23L8.53 18.23L8.53 18.23Q8.65 18.44 8.99 18.65L8.99 18.65L8.99 18.65Q9.32 18.80 9.78 18.98L9.78 18.98L9.78 18.98Q10.23 19.17 10.64 19.17L10.64 19.17L10.64 19.17Q10.93 19.17 11.14 19.03L11.14 19.03L11.14 19.03Q11.35 18.89 11.41 18.56L11.41 18.56L11.41 18.59L11.41 18.59Q11.65 17.75 11.94 16.70L11.94 16.70L11.94 16.70Q12.24 15.65 12.60 14.53L12.60 14.53L12.60 14.53Q13.34 14.36 14.09 14.22L14.09 14.22L14.09 14.22Q14.84 14.08 15.58 13.94L15.58 13.94L15.58 13.94Q15.99 13.87 16.16 13.74L16.16 13.74L16.16 13.74Q16.34 13.61 16.34 13.29L16.34 13.29L16.34 13.29Q16.34 13.19 16.30 12.98L16.30 12.98L16.31 12.99L16.31 12.99Q16.25 12.74 16.17 12.43L16.17 12.43L16.17 12.43Q16.09 12.12 15.94 11.86L15.94 11.86L15.94 11.86Q15.79 11.59 15.55 11.41L15.55 11.41L15.55 11.41Q15.30 11.23 14.92 11.23L14.92 11.23L14.80 11.23L14.80 11.23Q14.50 11.23 14.21 11.25L14.21 11.25L14.21 11.25Q13.92 11.27 13.62 11.30L13.62 11.30L13.62 11.30Q13.82 10.71 13.97 10.19L13.97 10.19L13.97 10.19Q14.13 9.66 14.29 9.25L14.29 9.25L14.29 9.25Q15.15 9.14 15.95 9.06L15.95 9.06L15.95 9.06Q16.74 8.97 17.49 8.86Z"></path></g><!----><!----></svg>